<svg width="16" height="16" viewBox="0 0 16 16" fill="none" xmlns="http://www.w3.org/2000/svg">
<path d="M2.6603 15.0356L12.9077 4.78822L12.8153 8.763C12.8119 8.92447 12.8404 9.08369 12.899 9.23158C12.9577 9.37946 13.0454 9.5131 13.1572 9.62488C13.269 9.73666 13.4026 9.82437 13.5505 9.88303C13.6984 9.94168 13.8576 9.97012 14.0191 9.96672C14.1805 9.96332 14.3411 9.92814 14.4916 9.86321C14.6421 9.79827 14.7795 9.70485 14.8961 9.58826C15.0127 9.47168 15.1061 9.33422 15.1711 9.18373C15.236 9.03325 15.2712 8.87268 15.2746 8.71121L15.4204 1.78381C15.4203 1.6227 15.3884 1.46454 15.3264 1.3184C15.2084 1.02359 14.9769 0.792107 14.6821 0.674159C14.536 0.612185 14.3778 0.580219 14.2167 0.580095L7.28933 0.725973C7.12768 0.728714 6.96683 0.763438 6.81605 0.828145C6.66527 0.892852 6.52755 0.98626 6.41083 1.10298C6.29411 1.2197 6.2007 1.35742 6.136 1.5082C6.07129 1.65898 6.03657 1.81983 6.03383 1.98148C6.02976 2.14315 6.05774 2.30268 6.11615 2.45087C6.17456 2.59906 6.26225 2.73297 6.37415 2.84487C6.48606 2.95678 6.61996 3.04446 6.76815 3.10287C6.91634 3.16129 7.07587 3.18926 7.23754 3.1852L11.2123 3.09284L0.964916 13.3402C0.730422 13.5747 0.594842 13.8889 0.588003 14.2137C0.581163 14.5385 0.703625 14.8473 0.928446 15.0721C1.15327 15.2969 1.46203 15.4194 1.78682 15.4125C2.1116 15.4057 2.4258 15.2701 2.6603 15.0356Z" fill="#6C6C6C"/>
</svg>
