<svg width="48" height="48" viewBox="0 0 48 48" fill="none" xmlns="http://www.w3.org/2000/svg">
<g id="left alignment / 24 / Outline">
<path id="Vector" d="M6.50078 26.3997L35.4848 26.3997L29.733 31.8902C29.4999 32.1138 29.3149 32.3792 29.1887 32.6713C29.0625 32.9634 28.9976 33.2764 28.9976 33.5926C28.9976 33.9087 29.0625 34.2218 29.1887 34.5138C29.3149 34.8059 29.4999 35.0713 29.733 35.2949C29.9662 35.5184 30.243 35.6958 30.5477 35.8167C30.8523 35.9377 31.1788 36 31.5086 36C31.8383 36 32.1648 35.9377 32.4695 35.8167C32.7741 35.6958 33.051 35.5184 33.2841 35.2949L43.2872 25.7044C43.5149 25.4763 43.6934 25.2075 43.8124 24.9131C44.0625 24.3294 44.0625 23.6747 43.8124 23.0909C43.6934 22.7966 43.5149 22.5278 43.2872 22.2997L33.2841 12.7092C33.0516 12.4845 32.7751 12.3061 32.4703 12.1844C32.1656 12.0627 31.8387 12 31.5086 12C31.1784 12 30.8516 12.0627 30.5468 12.1844C30.2421 12.3061 29.9655 12.4845 29.733 12.7092C29.4986 12.9321 29.3126 13.1973 29.1856 13.4895C29.0587 13.7816 28.9933 14.095 28.9933 14.4115C28.9933 14.728 29.0587 15.0414 29.1856 15.3336C29.3126 15.6258 29.4986 15.891 29.733 16.1138L35.4848 21.6044L6.50078 21.6044C5.83753 21.6044 5.20145 21.857 4.73246 22.3067C4.26347 22.7563 4 23.3662 4 24.002C4 24.6379 4.26347 25.2478 4.73246 25.6974C5.20145 26.1471 5.83753 26.3997 6.50078 26.3997Z" fill="white"/>
</g>
</svg>
