<svg width="16" height="16" viewBox="0 0 16 16" fill="none" xmlns="http://www.w3.org/2000/svg">
<g id="While hover=False, Side=Left" clip-path="url(#clip0_1434_2872)">
<path id="Vector" d="M6.1674 8.44119L9.11044 11.823C9.15877 11.8791 9.21628 11.9236 9.27965 11.954C9.34301 11.9844 9.41097 12 9.47962 12C9.54826 12 9.61622 11.9844 9.67959 11.954C9.74295 11.9236 9.80046 11.8791 9.8488 11.823C9.94564 11.7108 10 11.5591 10 11.401C10 11.2429 9.94564 11.0912 9.8488 10.979L7.27494 7.98629L9.8488 5.02351C9.94564 4.91136 10 4.75966 10 4.60154C10 4.44341 9.94564 4.29171 9.8488 4.17956C9.80064 4.12301 9.74321 4.07802 9.67984 4.04719C9.61647 4.01637 9.54841 4.00033 9.47962 4C9.41082 4.00033 9.34277 4.01637 9.27939 4.04719C9.21602 4.07802 9.15859 4.12301 9.11044 4.17956L6.1674 7.56133C6.11462 7.61738 6.07249 7.6854 6.04368 7.76112C6.01487 7.83683 6 7.9186 6 8.00126C6 8.08392 6.01487 8.16568 6.04368 8.2414C6.07249 8.31711 6.11462 8.38514 6.1674 8.44119V8.44119Z" fill="white"/>
<circle id="Ellipse" cx="8" cy="8" r="7.5" stroke="white"/>
</g>
<defs>
<clipPath id="clip0_1434_2872">
<rect width="16" height="16" fill="white"/>
</clipPath>
</defs>
</svg>
