<svg width="48" height="48" viewBox="0 0 48 48" fill="none" xmlns="http://www.w3.org/2000/svg">
<g id="Frame">
<path id="Vector" d="M40.9372 4.00028H7.05719C6.67634 3.99499 6.29819 4.06477 5.94432 4.20565C5.59045 4.34652 5.26779 4.55572 4.99478 4.8213C4.72177 5.08689 4.50375 5.40365 4.35317 5.7535C4.20259 6.10335 4.1224 6.47944 4.11719 6.86028V41.1403C4.1224 41.5211 4.20259 41.8972 4.35317 42.2471C4.50375 42.5969 4.72177 42.9137 4.99478 43.1793C5.26779 43.4448 5.59045 43.654 5.94432 43.7949C6.29819 43.9358 6.67634 44.0056 7.05719 44.0003H40.9372C41.318 44.0056 41.6962 43.9358 42.0501 43.7949C42.4039 43.654 42.7266 43.4448 42.9996 43.1793C43.2726 42.9137 43.4906 42.5969 43.6412 42.2471C43.7918 41.8972 43.872 41.5211 43.8772 41.1403V6.86028C43.872 6.47944 43.7918 6.10335 43.6412 5.7535C43.4906 5.40365 43.2726 5.08689 42.9996 4.8213C42.7266 4.55572 42.4039 4.34652 42.0501 4.20565C41.6962 4.06477 41.318 3.99499 40.9372 4.00028V4.00028ZM16.1772 37.4803H10.1772V19.4803H16.1772V37.4803ZM13.1772 16.9603C12.3497 16.9603 11.5561 16.6316 10.971 16.0465C10.3859 15.4613 10.0572 14.6678 10.0572 13.8403C10.0572 13.0128 10.3859 12.2192 10.971 11.6341C11.5561 11.049 12.3497 10.7203 13.1772 10.7203C13.6166 10.6704 14.0615 10.714 14.4829 10.848C14.9043 10.9821 15.2927 11.2037 15.6225 11.4982C15.9523 11.7927 16.2162 12.1536 16.3969 12.5572C16.5776 12.9609 16.671 13.3981 16.671 13.8403C16.671 14.2825 16.5776 14.7197 16.3969 15.1233C16.2162 15.5269 15.9523 15.8878 15.6225 16.1824C15.2927 16.4769 14.9043 16.6985 14.4829 16.8325C14.0615 16.9666 13.6166 17.0101 13.1772 16.9603V16.9603ZM37.8172 37.4803H31.8172V27.8203C31.8172 25.4003 30.9572 23.8203 28.7772 23.8203C28.1025 23.8252 27.4456 24.0368 26.8949 24.4266C26.3442 24.8164 25.9262 25.3656 25.6972 26.0003C25.5407 26.4704 25.4729 26.9654 25.4972 27.4603V37.4603H19.4972C19.4972 37.4603 19.4972 21.1003 19.4972 19.4603H25.4972V22.0003C26.0422 21.0545 26.835 20.2753 27.7901 19.7467C28.7451 19.218 29.8263 18.96 30.9172 19.0003C34.9172 19.0003 37.8172 21.5803 37.8172 27.1203V37.4803Z" fill="#F5F5F7"/>
</g>
</svg>
