<svg width="16" height="16" viewBox="0 0 16 16" fill="none" xmlns="http://www.w3.org/2000/svg">
<g id="While hover=False, Side=Right" clip-path="url(#clip0_1434_2875)">
<path id="Vector" d="M9.8326 7.55881L6.88956 4.17705C6.84123 4.12095 6.78372 4.07642 6.72035 4.04603C6.65699 4.01564 6.58903 4 6.52038 4C6.45174 4 6.38378 4.01564 6.32041 4.04603C6.25705 4.07642 6.19954 4.12095 6.1512 4.17705C6.05436 4.28919 6 4.44089 6 4.59902C6 4.75715 6.05436 4.90885 6.1512 5.02099L8.72506 8.01371L6.1512 10.9765C6.05436 11.0886 6 11.2403 6 11.3985C6 11.5566 6.05436 11.7083 6.1512 11.8204C6.19936 11.877 6.25679 11.922 6.32016 11.9528C6.38353 11.9836 6.45159 11.9997 6.52038 12C6.58918 11.9997 6.65724 11.9836 6.72061 11.9528C6.78398 11.922 6.84141 11.877 6.88956 11.8204L9.8326 8.43867C9.88538 8.38262 9.92751 8.3146 9.95632 8.23888C9.98513 8.16317 10 8.0814 10 7.99874C10 7.91608 9.98513 7.83432 9.95632 7.7586C9.92751 7.68289 9.88538 7.61486 9.8326 7.55881V7.55881Z" fill="white"/>
<circle id="Ellipse" cx="8" cy="8" r="7.5" stroke="white"/>
</g>
<defs>
<clipPath id="clip0_1434_2875">
<rect width="16" height="16" fill="white"/>
</clipPath>
</defs>
</svg>
