<svg width="48" height="48" viewBox="0 0 48 48" fill="none" xmlns="http://www.w3.org/2000/svg">
<g id="Frame">
<path id="Vector" d="M46.002 19.419C46.1009 16.5563 45.4749 13.715 44.182 11.159C43.3048 10.1102 42.0874 9.40241 40.742 9.15899C35.1771 8.65404 29.5891 8.44708 24.002 8.53899C18.4353 8.44291 12.8674 8.64319 7.32201 9.13899C6.22565 9.33843 5.21104 9.85268 4.40201 10.619C2.60201 12.279 2.40201 15.119 2.20201 17.519C1.91183 21.8341 1.91183 26.1639 2.20201 30.479C2.25987 31.8298 2.46099 33.1707 2.80201 34.479C3.04316 35.4891 3.53105 36.4237 4.22201 37.199C5.03654 38.0059 6.07478 38.5494 7.20201 38.759C11.5138 39.2912 15.8584 39.5118 20.202 39.419C27.202 39.519 33.342 39.419 40.602 38.859C41.7569 38.6623 42.8244 38.1181 43.662 37.299C44.2219 36.7388 44.6402 36.0532 44.882 35.299C45.5973 33.1042 45.9486 30.8072 45.922 28.499C46.002 27.379 46.002 20.619 46.002 19.419ZM19.482 29.699V17.319L31.322 23.539C28.002 25.379 23.622 27.459 19.482 29.699Z" fill="#F5F5F7"/>
</g>
</svg>
